<?xml version="1.0" encoding="UTF-8" standalone="no"?>
<!-- Generator: Adobe Illustrator 19.0.0, SVG Export Plug-In . SVG Version: 6.00 Build 0)  -->

<svg
   xmlns:dc="http://purl.org/dc/elements/1.1/"
   xmlns:cc="http://creativecommons.org/ns#"
   xmlns:rdf="http://www.w3.org/1999/02/22-rdf-syntax-ns#"
   xmlns:svg="http://www.w3.org/2000/svg"
   xmlns="http://www.w3.org/2000/svg"
   xmlns:sodipodi="http://sodipodi.sourceforge.net/DTD/sodipodi-0.dtd"
   xmlns:inkscape="http://www.inkscape.org/namespaces/inkscape"
   version="1.1"
   id="Capa_1"
   x="0px"
   y="0px"
   viewBox="0 0 511.548 511.548"
   style="enable-background:new 0 0 511.548 511.548;"
   xml:space="preserve"
   sodipodi:docname="F1LiveLogo.svg"
   inkscape:version="0.92.2 (5c3e80d, 2017-08-06)"><title
     id="title4808">F1LiveLogo</title><metadata
     id="metadata3839"><rdf:RDF><cc:Work
         rdf:about=""><dc:format>image/svg+xml</dc:format><dc:type
           rdf:resource="http://purl.org/dc/dcmitype/StillImage" /><dc:title>F1LiveLogo</dc:title></cc:Work></rdf:RDF></metadata><defs
     id="defs3837"><clipPath
       clipPathUnits="userSpaceOnUse"
       id="clipPath4804"><path
         id="path4806"
         d="M 510.94476,255.774 A 255.17076,255.17076 0 0 1 255.774,510.94476 255.17076,255.17076 0 0 1 0.60324158,255.774 255.17076,255.17076 0 0 1 255.774,0.60324408 255.17076,255.17076 0 0 1 510.94476,255.774 Z"
         style="fill:#1acc95;fill-opacity:1;stroke:none"
         inkscape:connector-curvature="0" /></clipPath></defs><sodipodi:namedview
     pagecolor="#ffffff"
     bordercolor="#666666"
     borderopacity="1"
     objecttolerance="10"
     gridtolerance="10"
     guidetolerance="10"
     inkscape:pageopacity="0"
     inkscape:pageshadow="2"
     inkscape:window-width="1920"
     inkscape:window-height="1017"
     id="namedview3835"
     showgrid="false"
     inkscape:zoom="0.58609021"
     inkscape:cx="-8.1892515"
     inkscape:cy="190.6805"
     inkscape:window-x="3832"
     inkscape:window-y="-8"
     inkscape:window-maximized="1"
     inkscape:current-layer="Capa_1" /><path
     style="fill:#1acc95;fill-opacity:1;stroke:none"
     d="M 510.94476,255.774 A 255.17076,255.17076 0 0 1 255.774,510.94476 255.17076,255.17076 0 0 1 0.60324097,255.774 255.17076,255.17076 0 0 1 255.774,0.60324097 255.17076,255.17076 0 0 1 510.94476,255.774 Z"
     id="path4758" /><path
     style="fill:#15a276;fill-opacity:1;stroke:none;stroke-width:1.78571117"
     clip-path="url(#clipPath4804)"
     d="M 373.6314,128.23954 622.90554,368.56024 427.55392,561.62328 93.25103,313.76879 Z"
     id="rect4756"
     inkscape:connector-curvature="0"
     sodipodi:nodetypes="ccccc" /><g
     id="g3802"
     transform="matrix(0.67028842,0,0,0.67028842,84.33156,84.331585)"><path
       style="fill:#e64c3c"
       d="m 502.77,200.51 v 172.05 c 0.025,4.779 -1.886,9.364 -5.297,12.712 l -3.708,3.708 v 32.926 c -0.002,1.71 -0.091,3.419 -0.265,5.12 -0.169,2.28 -0.464,4.549 -0.883,6.797 -0.441,2.207 -0.971,4.502 -1.589,6.709 -1.392,5.121 -3.223,10.112 -5.472,14.919 -0.884,1.854 -1.854,3.708 -2.737,5.561 -0.353,0.618 -0.707,1.324 -1.059,1.942 -1.412,2.472 -2.913,4.943 -4.414,7.327 -0.088,0.177 -0.264,0.353 -0.352,0.53 -2.207,3.178 -4.502,6.356 -6.885,9.357 -0.12,0.197 -0.269,0.376 -0.441,0.53 -0.883,1.059 -1.854,2.207 -2.825,3.266 -1.854,2.119 -3.884,4.149 -5.914,6.179 -2.03,1.942 -4.149,3.796 -6.268,5.561 -1.149,0.883 -2.207,1.677 -3.356,2.56 -0.1,0.109 -0.22,0.199 -0.352,0.265 -1.943,1.412 -3.973,2.737 -6.092,4.061 -4.697,2.865 -9.74,5.12 -15.007,6.709 -1.148,0.265 -2.295,0.617 -3.443,0.883 -1.236,0.265 -2.471,0.53 -3.708,0.706 -2.508,0.425 -5.047,0.632 -7.59,0.618 -6.307,0.007 -12.552,-1.254 -18.362,-3.708 0,0 -3.178,-1.324 -8.828,-3.708 h -0.088 C 373.094,497.822 341.137,484.316 302.031,467.809 192.216,421.464 26.256,351.462 26.256,351.462 18.626,348.239 12.767,341.868 10.194,333.995 7.621,326.122 8.585,317.521 12.838,310.413 l 6.886,-11.388 10.062,-16.861 c 3.799,-6.279 4.853,-13.843 2.914,-20.921 L 31.376,256.3 C 16.868,203.022 22.493,146.267 47.177,96.874 l 1.678,-3.443 c 3.137,-6.16 3.922,-13.253 2.207,-19.95 -3.646,-14.494 4.35,-29.379 18.448,-34.339 l 28.69,-10.24 27.72,-9.975 c 29.526,-10.531 60.417,-16.745 91.718,-18.45 9.888,-0.53 19.774,-0.618 29.573,-0.265 64.058,2.22 126.045,23.25 178.228,60.469 14.494,10.364 26.298,24.045 34.428,39.901 0.024,0 0.046,0.009 0.063,0.025 0.017,0.017 0.026,0.039 0.025,0.063 3.544,6.896 6.355,14.145 8.386,21.628 l 1.766,6.444 7.415,27.012 7.327,26.836 c 9.882,0.038 17.883,8.039 17.921,17.92 z"
       id="path3770"
       inkscape:connector-curvature="0" /><path
       style="fill:#c03a2b"
       d="m 470.108,128.742 -40.519,-0.265 c -4.874,-0.055 -8.905,3.78 -9.092,8.651 l -57.203,-25.335 -12.888,-5.738 c -6.225,-2.774 -11.547,-7.239 -15.36,-12.888 L 322.6,74.364 c -1.823,-2.717 -2.02,-6.213 -0.513,-9.117 1.507,-2.905 4.478,-4.756 7.75,-4.83 1.373,-0.004 2.731,0.297 3.973,0.883 l 87.835,40.519 h 35.928 l 2.295,-1.236 c 0.024,0 0.046,0.009 0.063,0.025 0.017,0.017 0.026,0.039 0.025,0.063 3.544,6.896 6.355,14.145 8.386,21.628 z"
       id="path3772"
       inkscape:connector-curvature="0" /><path
       style="fill:#8697cb"
       d="m 300.706,307.235 97.015,72.474 -118.819,-45.639 h -0.177 l -8.387,-3.354 c -16.003,-6.164 -31.499,-13.573 -46.345,-22.157 l 0.177,-0.353 c 0,0 -24.893,-76.712 -24.893,-79.007 0,-2.913 25.6,-59.145 25.6,-59.145 l 30.278,6.091 c 24.44,5.168 49.278,8.24 74.241,9.181 h 72.916 l -82.273,21.892 c -20.955,5.589 -36.875,22.66 -40.991,43.953 -4.116,21.293 4.295,43.068 21.658,56.064 z"
       id="path3774"
       inkscape:connector-curvature="0" /><path
       style="fill:#b0d3f0"
       d="m 502.77,200.51 v 172.05 c 0.025,4.779 -1.886,9.364 -5.297,12.712 l -3.708,3.708 H 443.36 c -14.306,-0.006 -28.488,-2.639 -41.843,-7.768 l -3.796,-1.501 -97.015,-72.475 c -17.362,-12.996 -25.773,-34.77 -21.657,-56.063 4.116,-21.293 20.035,-38.364 40.99,-43.953 l 82.273,-21.892 h 91.63 l 0.088,-0.177 c 5.418,3.22 8.738,9.056 8.74,15.359 z"
       id="path3776"
       inkscape:connector-curvature="0" /><path
       style="fill:#8697cb"
       d="m 477.523,155.754 -42.284,-0.265 c -3.011,-0.053 -5.795,-1.611 -7.415,-4.149 l -5.826,-9.004 c -1.069,-1.519 -1.598,-3.353 -1.501,-5.208 0.187,-4.871 4.219,-8.706 9.092,-8.651 l 40.519,0.265 z"
       id="path3778"
       inkscape:connector-curvature="0" /><circle
       style="fill:#e6e7e8"
       cx="251.11301"
       cy="272.31299"
       r="8.9779997"
       id="circle3780" /><g
       id="g3786"><path
         style="fill:#802f34"
         d="m 363.294,111.793 -115.288,24.629 c -3.795,0.776 -7.737,0.376 -11.299,-1.148 l -23.04,-10.505 C 167.628,103.836 127.923,71.134 98.555,29.961 l -0.353,-1.059 27.72,-9.975 c 29.526,-10.531 60.416,-16.745 91.717,-18.45 9.888,-0.53 19.774,-0.618 29.573,-0.265 l 82.625,60.116 v 0.088 c -3.272,0.074 -6.243,1.925 -7.75,4.83 -1.507,2.905 -1.311,6.4 0.513,9.117 l 12.446,18.803 c 3.813,5.649 9.135,10.115 15.36,12.888 z"
         id="path3782"
         inkscape:connector-curvature="0" /><path
         style="fill:#802f34"
         d="m 338.048,403.897 -37.341,18.538 c -2.893,1.578 -6.439,1.337 -9.092,-0.618 L 216.316,369.381 C 143.403,318.706 78.479,257.412 23.696,187.533 25.043,155.996 33.045,125.1 47.177,96.874 l 1.678,-3.443 c 3.137,-6.16 3.922,-13.253 2.207,-19.95 -3.646,-14.494 4.35,-29.379 18.448,-34.339 l 28.69,-10.24 0.353,1.059 4.59,13.771 c 14.498,43.704 41.661,82.112 78.037,110.345 l 12.535,9.799 -17.92,-3.619 c -18.243,-3.607 -36.786,4.627 -46.345,20.578 -9.559,15.951 -8.075,36.186 3.708,50.573 18.044,22.158 38.906,41.863 62.057,58.615 9.254,6.69 18.861,12.878 28.778,18.538 14.846,8.585 30.342,15.993 46.345,22.157 l 8.387,3.354 h 0.177 l 61.176,55.084 c 2.191,2.006 3.258,4.96 2.852,7.904 -0.406,2.944 -2.23,5.498 -4.882,6.837 z"
         id="path3784"
         inkscape:connector-curvature="0" /></g><path
       style="fill:#556080"
       d="m 224.877,170.055 -0.707,3.531 v 14.477 c 0.001,13.379 -6.692,25.871 -17.832,33.28 -2.233,1.508 -3.675,3.935 -3.931,6.617 -0.256,2.682 0.7,5.339 2.608,7.242 l 8.651,8.651 c 6.727,6.751 10.505,15.893 10.504,25.423 v 38.93 l -0.177,0.353 c -9.917,-5.66 -19.524,-11.848 -28.778,-18.538 -23.151,-16.752 -44.013,-36.457 -62.058,-58.615 -11.781,-14.387 -13.263,-34.62 -3.705,-50.571 9.558,-15.95 28.1,-24.184 46.342,-20.58 l 17.92,3.619 z"
       id="path3788"
       inkscape:connector-curvature="0" /><g
       id="g3794"><circle
         style="fill:#e6e7e8"
         cx="170.332"
         cy="209.496"
         r="17.945999"
         id="circle3790" /><path
         style="fill:#e6e7e8"
         d="m 197.244,267.775 c -0.572,-0.032 -1.136,-0.151 -1.672,-0.353 -0.536,-0.217 -1.018,-0.548 -1.414,-0.97 -0.861,-0.795 -1.343,-1.919 -1.328,-3.091 -0.021,-0.579 0.1,-1.155 0.353,-1.677 0.209,-0.566 0.542,-1.079 0.974,-1.5 1.28,-1.2 3.142,-1.545 4.767,-0.884 0.53,0.189 1.012,0.49 1.414,0.884 0.433,0.419 0.763,0.932 0.966,1.5 0.253,0.522 0.374,1.097 0.353,1.677 0.015,1.17 -0.464,2.292 -1.319,3.091 -0.397,0.42 -0.879,0.751 -1.414,0.97 -0.537,0.209 -1.105,0.329 -1.68,0.353 z"
         id="path3792"
         inkscape:connector-curvature="0" /></g><path
       style="fill:#802f34"
       d="m 492.618,433.823 c -7.768,41.49 -53.23,91.984 -95.868,73.975 0,0 -3.178,-1.324 -8.916,-3.708 l 12.094,-9.799 c 19.828,-15.828 33.428,-38.15 38.4,-63.029 l 0.884,-4.679 16.683,6.621 c 1.067,0.425 2.207,0.635 3.356,0.618 h 33.367 z"
       id="path3796"
       inkscape:connector-curvature="0" /><path
       style="fill:#c03a2b"
       d="m 493.765,388.979 v 32.662 c -0.004,4.087 -0.389,8.166 -1.148,12.182 H 459.25 c -1.148,0.018 -2.289,-0.192 -3.356,-0.618 l -16.683,-6.621 -20.922,-8.386 c -3.397,-1.406 -5.622,-4.71 -5.649,-8.386 V 384.83 c 10.009,2.75 20.341,4.145 30.72,4.149 z"
       id="path3798"
       inkscape:connector-curvature="0" /><path
       style="fill:#556080"
       d="M 302.03,467.809 C 192.216,421.464 26.256,351.462 26.256,351.462 18.626,348.239 12.767,341.868 10.194,333.995 7.621,326.122 8.585,317.521 12.838,310.413 l 6.886,-11.388 5.208,4.149 c 18.97,15.153 40.751,26.404 64.088,33.103 18.214,5.233 35.513,13.243 51.288,23.746 z"
       id="path3800"
       inkscape:connector-curvature="0" /></g><g
     id="g3804" /><g
     id="g3806" /><g
     id="g3808" /><g
     id="g3810" /><g
     id="g3812" /><g
     id="g3814" /><g
     id="g3816" /><g
     id="g3818" /><g
     id="g3820" /><g
     id="g3822" /><g
     id="g3824" /><g
     id="g3826" /><g
     id="g3828" /><g
     id="g3830" /><g
     id="g3832" /></svg>